<?xml version="1.0" standalone="no"?><!DOCTYPE svg PUBLIC "-//W3C//DTD SVG 1.1//EN" "http://www.w3.org/Graphics/SVG/1.1/DTD/svg11.dtd"><svg t="1630576695972" class="icon" viewBox="0 0 1024 1024" version="1.1" xmlns="http://www.w3.org/2000/svg" p-id="6464" xmlns:xlink="http://www.w3.org/1999/xlink" width="128" height="128"><defs><style type="text/css">@font-face { font-family: uc-nexus-iconfont; src: url("chrome-extension://pogijhnlcfmcppgimcaccdkmbedjkmhi/res/font_9qmmi8b8jsxxbt9.woff") format("woff"), url("chrome-extension://pogijhnlcfmcppgimcaccdkmbedjkmhi/res/font_9qmmi8b8jsxxbt9.ttf") format("truetype"); }
</style></defs><path d="M951.808 386.048c-6.144-21.504-26.624-35.84-48.64-34.304-24.576 1.536-47.616-10.752-59.904-32.256-12.288-20.992-11.264-47.616 2.048-68.096 12.288-18.432 9.728-43.52-5.632-59.392-58.88-60.928-134.144-104.448-216.576-125.44-21.504-5.632-44.544 5.12-54.272 25.088-10.752 22.016-33.28 35.84-57.344 35.84h-0.512c-24.064 0-46.592-13.824-57.344-35.84C443.392 71.68 421.376 61.44 399.36 66.56c-82.432 20.992-157.696 64-216.576 124.928-15.36 15.872-17.92 40.96-5.632 59.392 13.824 20.48 14.336 46.592 2.048 68.096-12.288 20.992-35.328 33.792-59.904 32.256-22.528-1.536-43.008 12.8-48.64 34.304-11.776 40.96-17.408 82.944-17.408 125.44s5.632 84.48 17.408 124.928c6.144 21.504 26.624 35.84 48.64 34.304 24.576-1.536 47.616 11.264 59.904 32.256 12.288 21.504 11.776 47.616-2.048 68.096-12.288 18.432-9.728 43.52 5.632 59.392C242.176 890.88 316.928 934.4 399.36 955.392c21.504 5.632 44.544-5.12 54.272-25.088 10.752-22.016 32.768-35.84 57.344-35.84 24.576 0 47.104 13.824 57.856 35.84 8.192 16.384 24.576 26.624 42.496 26.624 4.096 0 7.68-0.512 11.776-1.536 82.432-20.992 157.696-64 216.576-125.44 15.872-15.872 17.92-40.448 5.632-59.392-13.312-19.968-14.336-46.592-2.048-68.096 11.776-20.992 35.328-33.792 59.904-32.256 22.528 1.536 42.496-12.8 48.64-34.304 11.264-40.448 17.408-82.432 17.408-124.928 0-42.496-6.144-84.48-17.408-124.928zM757.76 797.696c-35.84 31.232-76.8 54.784-121.856 70.656-31.232-36.352-76.8-56.32-124.416-56.32-48.128 0-93.184 20.48-124.928 56.32-45.056-15.872-86.016-39.424-121.856-70.656 15.36-45.568 10.752-94.72-13.312-136.192-24.064-41.984-64-70.656-111.104-79.872-8.704-46.592-8.704-94.208 0-140.8 47.104-9.216 87.552-37.888 111.104-79.872 24.064-41.984 29.184-91.136 13.312-136.192 35.84-31.232 76.8-54.784 121.856-70.656 31.232 35.84 76.288 56.832 123.904 56.832 48.64 0 94.208-20.48 125.44-56.832C680.96 170.496 721.92 194.048 757.76 225.28c-15.36 45.056-10.752 94.72 13.312 136.192 24.064 41.984 64 70.656 111.104 79.872 8.704 46.592 8.704 93.696 0 140.8-47.104 9.216-87.552 37.888-111.104 79.872-24.064 41.472-29.184 90.624-13.312 135.68z" fill="#191919" p-id="6465"></path><path d="M695.808 497.152c0-2.56-0.512-5.12-1.024-8.192-9.728-92.672-89.088-162.304-184.32-162.304-95.744-0.512-175.104 70.656-184.32 164.864-5.12 54.272 13.824 108.032 51.712 147.968 35.328 36.864 83.456 57.856 133.632 57.856h9.216c55.296-3.072 94.72-20.48 124.928-55.808l1.024-1.024c7.168-6.656 11.776-15.36 12.288-25.088 0.512-9.728-2.56-18.944-9.216-26.624-6.656-7.168-15.36-11.776-25.088-12.288-9.728-0.512-18.944 2.56-26.624 9.216l-4.096 3.584c-2.048 1.536-3.584 3.584-5.632 6.144-18.944 16.896-49.664 27.648-77.824 27.648-60.928 0-110.592-49.664-110.592-110.592s49.664-110.592 110.592-110.592c57.856 0 104.96 42.496 110.08 98.304v8.192c0 9.216 4.096 17.92 10.752 24.064 6.656 6.656 15.36 10.24 24.576 9.728h6.144c18.944-0.512 34.304-15.872 33.792-35.328v-9.728z" fill="#1890FF" p-id="6466"></path></svg>