<?xml version="1.0" standalone="no"?><!DOCTYPE svg PUBLIC "-//W3C//DTD SVG 1.1//EN" "http://www.w3.org/Graphics/SVG/1.1/DTD/svg11.dtd"><svg t="1630576664519" class="icon" viewBox="0 0 1024 1024" version="1.1" xmlns="http://www.w3.org/2000/svg" p-id="5681" xmlns:xlink="http://www.w3.org/1999/xlink" width="128" height="128"><defs><style type="text/css">@font-face { font-family: uc-nexus-iconfont; src: url("chrome-extension://pogijhnlcfmcppgimcaccdkmbedjkmhi/res/font_9qmmi8b8jsxxbt9.woff") format("woff"), url("chrome-extension://pogijhnlcfmcppgimcaccdkmbedjkmhi/res/font_9qmmi8b8jsxxbt9.ttf") format("truetype"); }
</style></defs><path d="M570.368 512H472.064c-61.952 0-112.128 46.08-112.128 103.424V865.28H440.32v-249.856c0-12.288 14.848-23.04 31.744-23.04h97.792c16.896 0 31.744 10.752 31.744 23.04V865.28H682.496v-249.856c0-56.832-50.176-103.424-112.128-103.424z" fill="#2F88FF" p-id="5682"></path><path d="M927.232 438.272L570.368 107.52l-0.512-0.512c-32.768-30.208-82.432-30.208-115.712 0L98.304 448c-8.192 8.192-13.312 18.944-13.312 30.208-0.512 11.776 3.584 22.528 11.776 30.72 8.192 8.704 19.456 13.312 31.232 13.312 6.656 0 12.8-1.536 18.432-4.096v289.792c0 73.216 59.904 133.12 133.632 133.12H742.4c73.728 0 133.632-59.904 133.632-133.632v-43.008c0-23.552-19.456-43.008-43.008-43.008s-43.008 19.456-43.008 43.008v43.008c0 26.112-21.504 47.616-47.616 47.616H280.064c-26.112 0-47.616-21.504-47.616-47.616v-368.64L512 171.008l278.016 257.024v177.664c0 23.552 19.456 43.008 43.008 43.008 23.552 0 43.008-18.944 43.008-43.008V506.368c16.896 10.24 39.936 7.68 53.76-7.68 7.68-8.192 11.776-19.456 11.264-30.72-0.512-11.264-5.632-22.016-13.824-29.696z" fill="#191919" p-id="5683"></path></svg>