<?xml version="1.0" standalone="no"?><!DOCTYPE svg PUBLIC "-//W3C//DTD SVG 1.1//EN" "http://www.w3.org/Graphics/SVG/1.1/DTD/svg11.dtd"><svg t="1637192937931" class="icon" viewBox="0 0 1024 1024" version="1.1" xmlns="http://www.w3.org/2000/svg" p-id="8189" xmlns:xlink="http://www.w3.org/1999/xlink" width="128" height="128"><defs><style type="text/css">@font-face { font-family: uc-nexus-iconfont; src: url("chrome-extension://pogijhnlcfmcppgimcaccdkmbedjkmhi/res/font_9qmmi8b8jsxxbt9.woff") format("woff"), url("chrome-extension://pogijhnlcfmcppgimcaccdkmbedjkmhi/res/font_9qmmi8b8jsxxbt9.ttf") format("truetype"); }
</style></defs><path d="M467.5 494.4H322.6c-46.6 0-90.4-18.3-123.5-51.6-32.5-32.8-50.2-75.8-49.9-121.3 0.3-45.4 18.2-88 50.3-120.1 32.1-32.1 74.7-49.9 120.1-50.3 45.5-0.3 88.5 17.4 121.3 49.9 33.3 33.1 51.6 76.9 51.6 123.5v144.9c0 13.8-11.2 25-25 25zM319.8 176.1l0.2 25c-66.1 0.5-120.3 54.6-120.7 120.7-0.2 32 12.3 62.5 35.4 85.7 23.6 23.8 54.9 36.9 88 36.9h119.9V324.5c0-33.2-13.1-64.4-36.9-88-23-22.8-53.1-35.4-84.8-35.4h-0.9l-0.2-25z m1 699.8h-1.3c-45.4-0.3-88-18.2-120.1-50.3-32.1-32.1-49.9-74.7-50.3-120.1-0.3-45.5 17.4-88.5 49.9-121.3 33.1-33.3 76.9-51.6 123.5-51.6h144.9c13.8 0 25 11.2 25 25v144.9c0 46.6-18.3 90.4-51.6 123.5-32.4 32.2-75 49.9-120 49.9zM199.2 705.2c0.5 66.1 54.6 120.3 120.7 120.7h0.9c31.7 0 61.8-12.5 84.8-35.4 23.8-23.6 36.9-54.9 36.9-88V582.6H322.6c-33.2 0-64.4 13.1-88 36.9-23.1 23.2-35.6 53.6-35.4 85.7z m503.7 171.7c-45 0-87.6-17.7-120-49.9-33.3-33.1-51.6-76.9-51.6-123.5V558.6c0-13.8 11.2-25 25-25h144.9c46.6 0 90.4 18.3 123.5 51.6 32.5 32.8 50.2 75.8 49.9 121.3-0.3 45.4-18.2 88-50.3 120.1s-74.7 49.9-120.1 50.3h-1.3z m0.9-50l0.2 25-0.2-25c66.1-0.5 120.3-54.6 120.7-120.7 0.2-32-12.3-62.5-35.4-85.7-23.6-23.8-54.9-36.9-88-36.9H581.2v119.9c0 33.2 13.1 64.4 36.9 88 23 22.8 53.1 35.4 84.8 35.4h0.9z m-2.6-332.5h-145c-13.8 0-25-11.2-25-25V324.5c0-46.6 18.3-90.4 51.6-123.5 32.5-32.2 75-49.9 120-49.9h1.3c45.4 0.3 88 18.2 120.1 50.3 32.1 32.1 49.9 74.7 50.3 120.1 0.3 45.5-17.4 88.5-49.9 121.3-33 33.3-76.9 51.6-123.4 51.6z m-120-50h119.9c33.2 0 64.4-13.1 88-36.9 23.1-23.2 35.6-53.7 35.4-85.7-0.5-66.1-54.6-120.3-120.7-120.7h-0.9c-31.7 0-61.8 12.5-84.8 35.4-23.8 23.6-36.9 54.9-36.9 88v119.9z" p-id="8190"></path></svg>