<?xml version="1.0" standalone="no"?><!DOCTYPE svg PUBLIC "-//W3C//DTD SVG 1.1//EN" "http://www.w3.org/Graphics/SVG/1.1/DTD/svg11.dtd"><svg t="1637203218090" class="icon" viewBox="0 0 1024 1024" version="1.1" xmlns="http://www.w3.org/2000/svg" p-id="7179" xmlns:xlink="http://www.w3.org/1999/xlink" width="128" height="128"><defs><style type="text/css">@font-face { font-family: uc-nexus-iconfont; src: url("chrome-extension://pogijhnlcfmcppgimcaccdkmbedjkmhi/res/font_9qmmi8b8jsxxbt9.woff") format("woff"), url("chrome-extension://pogijhnlcfmcppgimcaccdkmbedjkmhi/res/font_9qmmi8b8jsxxbt9.ttf") format("truetype"); }
</style></defs><path d="M535.7 180.1l-107.9 95.2-145.3 7.2-7.2 145.4-95.2 107.9 95.1 107.8 9.1 143.6 143.5 9 107.9 95.2 107.9-95.2 145.3-7.2 7.2-145.4 95.2-107.8-95.2-107.9-8.9-143.6-143.6-9z" fill="#FFECA0" p-id="7180"></path><path d="M197 356c-0.4 7.6-0.7 15.1-1.1 22.7 2.4-5.9 4.9-11.8 7.3-17.7l-83.4 94.5c-3.9 4.5-7.9 8.9-11.8 13.4-9.4 10.6-9.4 24.7 0 35.4l83.4 94.5c3.9 4.5 7.9 8.9 11.8 13.4-2.4-5.9-4.9-11.8-7.3-17.7 2.6 41.9 5.3 83.9 7.9 125.8 0.4 5.9 0.7 11.9 1.1 17.8 0.9 14.1 10.8 24.1 25 25 41.9 2.6 83.8 5.3 125.8 7.9 5.9 0.4 11.8 0.7 17.8 1.1-5.9-2.4-11.8-4.9-17.7-7.3l94.5 83.4c4.5 3.9 8.9 7.9 13.4 11.8 10.6 9.4 24.7 9.4 35.4 0l94.5-83.4c4.5-3.9 8.9-7.9 13.4-11.8-5.9 2.4-11.8 4.9-17.7 7.3l127.5-6.3c6-0.3 11.9-0.6 17.9-0.9 14-0.7 24.3-10.9 25-25l6.3-127.5c0.3-6 0.6-11.9 0.9-17.9-2.4 5.9-4.9 11.8-7.3 17.7l83.4-94.5c3.9-4.5 7.9-8.9 11.8-13.4 9.4-10.6 9.4-24.7 0-35.4l-83.4-94.5c-3.9-4.5-7.9-8.9-11.8-13.4 2.4 5.9 4.9 11.8 7.3 17.7-2.6-41.9-5.2-83.9-7.8-125.8-0.4-5.9-0.7-11.9-1.1-17.8-0.9-14.1-10.8-24.1-25-25-41.9-2.6-83.9-5.2-125.8-7.9-5.9-0.4-11.9-0.7-17.8-1.1 5.9 2.4 11.8 4.9 17.7 7.3L512.6 125c-4.5-3.9-8.9-7.9-13.4-11.8-10.6-9.4-24.7-9.4-35.4 0l-94.5 83.4c-4.5 3.9-8.9 7.9-13.4 11.8 5.9-2.4 11.8-4.9 17.7-7.3l-127.5 6.3c-6 0.3-11.9 0.6-17.9 0.9-14 0.7-24.3 10.9-25 25-0.7 13.2-1.3 26.5-2 39.7-0.6 13.1 12 25.6 25 25 14.1-0.6 24.3-11 25-25 0.7-13.2 1.3-26.5 2-39.7l-25 25 127.5-6.3c5.9-0.3 11.8-0.5 17.7-0.9 7.8-0.5 13.4-3.5 19-8.3 2.1-1.8 4.2-3.7 6.3-5.5 18.5-16.3 37-32.7 55.5-49 15-13.2 30-26.5 45-39.7h-35.4c31.8 28 63.5 56 95.3 84.1 4.2 3.7 8.3 7.4 12.5 11 5.9 5.1 12.1 7 19.6 7.5 2.9 0.2 5.9 0.4 8.8 0.5 24.5 1.5 49.1 3.1 73.6 4.6 19.8 1.2 39.6 2.5 59.4 3.7l-25-25c2.6 42.3 5.3 84.5 7.9 126.8 0.3 5.5 0.6 11.1 1 16.6 0.6 7.8 3.6 13.5 8.6 19.2 1.9 2.2 3.9 4.4 5.8 6.6 16.3 18.4 32.5 36.9 48.8 55.3 13.1 14.9 26.3 29.8 39.4 44.6v-35.4c-28.2 31.9-56.3 63.8-84.5 95.8-3.5 4-7.2 8-10.6 12.1-5.1 6-7.1 12.4-7.5 19.9-0.2 3-0.3 6.1-0.5 9.1-1.2 24.9-2.5 49.8-3.7 74.7-1 19.8-2 39.5-2.9 59.3l25-25-127.5 6.3c-5.9 0.3-11.8 0.5-17.7 0.9-7.8 0.5-13.4 3.5-19 8.3-2.1 1.8-4.2 3.7-6.3 5.5-18.5 16.3-37 32.7-55.5 49-15 13.2-30 26.5-45 39.7h35.4c-31.8-28-63.5-56.1-95.3-84.1-4.2-3.7-8.3-7.4-12.5-11-5.9-5.1-12.1-7-19.6-7.5-2.9-0.2-5.9-0.4-8.8-0.5-24.5-1.5-49-3.1-73.5-4.6-19.8-1.2-39.6-2.5-59.4-3.7l25 25c-2.7-42.3-5.3-84.5-8-126.8-0.3-5.5-0.6-11.1-1-16.6-0.6-7.8-3.6-13.5-8.6-19.2-1.9-2.2-3.9-4.4-5.8-6.6-16.3-18.4-32.5-36.8-48.8-55.3-13.1-14.9-26.2-29.7-39.4-44.6v35.4c30.2-34.2 60.3-68.4 90.5-102.6 1.5-1.7 3.1-3.5 4.6-5.3 5.3-6.2 7.1-12.7 7.5-20.6 0.3-6.6 0.7-13.2 1-19.9 0.6-13.1-12-25.6-25-25-14.2 0.8-24.4 11.2-25.1 25.2z" fill="#92646E" p-id="7181"></path><path d="M314.7 589v-61-97.4-22.5c-15.5 4.2-31.1 8.4-46.6 12.6 9.5 20.4 19 40.7 28.4 61.1l45.3 97.5c3.5 7.5 7 15 10.4 22.4 4.4 9.5 18.5 14.6 28.2 11.5 10.5-3.4 18.4-12.8 18.4-24.1v-61-97.4-22.5c0-13.1-11.5-25.6-25-25-13.5 0.6-25 11-25 25v180.9c15.5-4.2 31.1-8.4 46.6-12.6-9.5-20.4-19-40.7-28.4-61.1l-45.3-97.5c-3.5-7.5-7-15-10.4-22.4-4.4-9.5-18.5-14.6-28.2-11.5-10.5 3.4-18.4 12.8-18.4 24.1V589c0 13.1 11.5 25.6 25 25 13.5-0.6 25-11 25-25zM521.7 383h-84.2c-13.5 0-25 11.5-25 25v178.9c0 13.5 11.5 25 25 25h84.2c13.1 0 25.6-11.5 25-25-0.6-13.5-11-25-25-25h-84.2l25 25v-60.5V430v-22l-25 25h84.2c13.1 0 25.6-11.5 25-25-0.6-13.6-11-25-25-25z" fill="#4381FF" p-id="7182"></path><path d="M502 469.4c-21.5 0.1-43 0.3-64.5 0-13.1-0.2-25.6 11.6-25 25 0.6 13.7 11 24.8 25 25 21.5 0.3 43 0.1 64.5 0 13.1-0.1 25.6-11.4 25-25-0.6-13.5-11-25.1-25-25zM558.2 408v180.9c0 10.6 7.7 21.7 18.4 24.1 10.9 2.5 22.4-1.7 28.2-11.5 15.6-26.4 31.2-52.8 46.9-79.2 2.2-3.8 4.5-7.6 6.7-11.4h-43.2c15.6 26.4 31.2 52.8 46.9 79.2 2.2 3.8 4.5 7.6 6.7 11.4 5.4 9.2 17.7 14.9 28.2 11.5 10.5-3.4 18.4-12.8 18.4-24.1v-61-97.4V408c0-13.1-11.5-25.6-25-25-13.5 0.6-25 11-25 25v180.9c15.5-4.2 31.1-8.4 46.6-12.6-15.6-26.4-31.2-52.8-46.9-79.2-2.2-3.8-4.5-7.6-6.7-11.4-9.6-16.2-33.6-16.2-43.2 0-15.6 26.4-31.2 52.8-46.9 79.2-2.2 3.8-4.5 7.6-6.7 11.4 15.5 4.2 31.1 8.4 46.6 12.6v-61-97.4V408c0-13.1-11.5-25.6-25-25-13.5 0.6-25 10.9-25 25z" fill="#4381FF" p-id="7183"></path><path d="M295.9 572v-61-97.4-22.5c-15.5 4.2-31.1 8.4-46.6 12.6 9.5 20.4 19 40.7 28.4 61.1l45.3 97.5c3.5 7.5 7 15 10.4 22.4 4.4 9.5 18.5 14.6 28.2 11.5 10.5-3.4 18.4-12.8 18.4-24.1v-61-97.4-22.5c0-13.1-11.5-25.6-25-25-13.5 0.6-25 11-25 25v180.9c15.5-4.2 31.1-8.4 46.6-12.6-9.5-20.4-19-40.7-28.4-61.1l-45.3-97.5c-3.5-7.5-7-15-10.4-22.4-4.4-9.5-18.5-14.6-28.2-11.5-10.5 3.4-18.4 12.8-18.4 24.1V572c0 13.1 11.5 25.6 25 25 13.6-0.6 25-11 25-25zM502.9 365.9h-84.2c-13.5 0-25 11.5-25 25v178.9c0 13.5 11.5 25 25 25h84.2c13.1 0 25.6-11.5 25-25-0.6-13.5-11-25-25-25h-84.2l25 25v-60.5-96.4-22l-25 25h84.2c13.1 0 25.6-11.5 25-25-0.6-13.5-11-25-25-25z" fill="#FF642E" p-id="7184"></path><path d="M483.2 452.4c-21.5 0.1-43 0.3-64.5 0-13.1-0.2-25.6 11.6-25 25 0.6 13.7 11 24.8 25 25 21.5 0.3 43 0.1 64.5 0 13.1-0.1 25.6-11.4 25-25-0.6-13.5-11-25.1-25-25zM539.5 390.9v180.9c0 10.6 7.7 21.7 18.4 24.1 10.9 2.5 22.4-1.7 28.2-11.5 15.6-26.4 31.2-52.8 46.9-79.2 2.2-3.8 4.5-7.6 6.7-11.4h-43.2c15.6 26.4 31.2 52.8 46.9 79.2 2.2 3.8 4.5 7.6 6.7 11.4 5.4 9.2 17.7 14.9 28.2 11.5 10.5-3.4 18.4-12.8 18.4-24.1v-61-97.4-22.5c0-13.1-11.5-25.6-25-25-13.5 0.6-25 11-25 25v180.9c15.5-4.2 31.1-8.4 46.6-12.6-15.6-26.4-31.2-52.8-46.9-79.2-2.2-3.8-4.5-7.6-6.7-11.4-9.6-16.2-33.6-16.2-43.2 0-15.6 26.4-31.2 52.8-46.9 79.2-2.2 3.8-4.5 7.6-6.7 11.4 15.5 4.2 31.1 8.4 46.6 12.6v-61-97.4-22.5c0-13.1-11.5-25.6-25-25-13.6 0.7-25 11-25 25z" fill="#FF642E" p-id="7185"></path></svg>